<svg xmlns="http://www.w3.org/2000/svg" viewBox="0 0 114.81 34.97"><defs><style>.cls-1{fill:#201e3c;}</style></defs><title>kazi_word_d</title><g id="Layer_2" data-name="Layer 2"><g id="Layer_1-2" data-name="Layer 1"><path class="cls-1" d="M0,35v-3H20v3Z"/><path class="cls-1" d="M32.62,20.27l10.22-9.62h4.09l-8.77,8L48.38,31.94H44.93L36.07,20.49l-3.45,3.23v8.22h-3V0h3Z"/><path class="cls-1" d="M72.7,17.08V31.94h-3V22.19c-9.92,2.68-11.28,5.62-11.28,9.75h-3c-.05-6,2.13-9.71,14.26-12.48V17.29c0-3.36-1.57-4.56-5-4.56-3.62,0-5.24,1.79-5.79,4.22H55.74c.64-4.13,3.92-6.73,8.95-6.73C69,10.22,72.7,12.09,72.7,17.08Z"/><path class="cls-1" d="M100.89,13.33l-14.48,16h14.48v2.64H82.66V29.39l14.39-16.1H82.92V10.65h18Z"/><path class="cls-1" d="M114.81,4.73h-5.19V0h5.19ZM113.7,31.94h-3V10.65h3Z"/></g></g></svg>